<svg width="20" height="16" viewBox="0 0 20 16" fill="none" xmlns="http://www.w3.org/2000/svg">
<path d="M1.99998 15.5C1.59101 15.5 1.23878 15.3522 0.943275 15.0567C0.647758 14.7612 0.5 14.409 0.5 14V10.4039C1.06923 10.2949 1.54488 10.0157 1.92693 9.56636C2.30898 9.11701 2.5 8.59489 2.5 8.00001C2.5 7.40512 2.30898 6.88301 1.92693 6.43366C1.54488 5.98429 1.06923 5.70511 0.5 5.59613V2.00001C0.5 1.59104 0.647758 1.23881 0.943275 0.943305C1.23878 0.647789 1.59101 0.500031 1.99998 0.500031H18C18.4089 0.500031 18.7612 0.647789 19.0567 0.943305C19.3522 1.23881 19.5 1.59104 19.5 2.00001V14C19.5 14.409 19.3522 14.7612 19.0567 15.0567C18.7612 15.3522 18.4089 15.5 18 15.5H1.99998ZM1.99998 14H18V2.00001H1.99998V4.55001C2.61664 4.91667 3.10414 5.40417 3.46248 6.01251C3.82081 6.62084 3.99998 7.28334 3.99998 8.00001C3.99998 8.71667 3.82081 9.37917 3.46248 9.98751C3.10414 10.5958 2.61664 11.0833 1.99998 11.45V14ZM6.88845 11.5346L15.6923 9.20386C15.9295 9.14359 16.1122 9.00545 16.2404 8.78943C16.3686 8.5734 16.4025 8.35 16.3423 8.11923C16.282 7.88846 16.1458 7.7202 15.9336 7.61443C15.7214 7.50866 15.5 7.48591 15.2692 7.54616L12.7808 8.21541L8.78075 4.46541L7.55383 4.75771L9.95382 8.95771L7.38075 9.59616L6.13075 8.64616L5.35383 8.85771L6.88845 11.5346Z" fill="white"/>
</svg>
